<svg height="152pt" preserveAspectRatio="xMidYMid meet" viewBox="0 0 152 152" width="152pt" xmlns="https://www.w3.org/2000/svg"><path d="m1290 1236c-208-58-302-91-322-116-15-19-21-20-58-10-23 6-53 13-68 15s-42 8-60 14c-17 5-67 13-110 16l-77 7-99-51c-75-40-106-50-130-47-17 3-58 8-91 10-33 3-95 8-137 12l-78 7v-376c0-239 4-378 10-382 5-3 18-8 27-10 10-2 48-11 86-20 50-11 73-13 87-5 23 12 59 67 80 120 23 60 28 62 68 30 37-29 100-67 157-94 17-8 36-24 43-35 10-17 19-20 50-15 20 3 44 12 53 20 8 8 21 14 28 14 6 0 24 12 39 27s29 28 32 28c46 5 72 29 75 69 0 5 13 13 28 17 39 11 54 25 61 59 4 25 10 30 34 30 37 0 62 28 62 68 0 31 13 42 25 22 4-6 16-5 33 1 15 6 34 12 42 14s40 10 70 19c30 8 94 22 142 31l86 17-3 56c-3 42-15 358-18 470 0 15 14 18-167-32z" transform="matrix(.1 0 0 -.1 0 152)"/></svg>